<svg xmlns="http://www.w3.org/2000/svg" xmlns:xlink="http://www.w3.org/1999/xlink" version="1.1" x="0px" y="0px" viewBox="0 0 90 112.5" enable-background="new 0 0 90 90" xml:space="preserve"><g><g><g><path fill="#000000" stroke="#1D1D1B" stroke-miterlimit="10" d="M48.3,57.9l26.1-26.1c1-1,1.6-2.4,1.6-3.5c0-1.2-0.6-2.4-1.6-3.3     c-2-2-4.7-2-6.7,0L45,47.7L22.2,24.9c-2-2-4.7-2-6.7,0s-2,4.9,0,6.9l26.1,26.1c1,1,2.2,1.4,3.3,1.4     C46.3,59.3,47.3,58.9,48.3,57.9z"/></g></g><g><path fill="#000000" stroke="#1D1D1B" stroke-miterlimit="10" d="M84.6,64c0,0.7,0.3,1.4,0.8,1.9c0.5,0.5,1.2,0.8,1.9,0.8    s1.4-0.3,1.9-0.8c0.5-0.5,0.8-1.2,0.8-1.9c0-0.7-0.3-1.4-0.8-1.9c-0.5-0.5-1.2-0.8-1.9-0.8s-1.4,0.3-1.9,0.8    C84.8,62.6,84.6,63.3,84.6,64z"/><path fill="#000000" stroke="#1D1D1B" stroke-miterlimit="10" d="M47.6,64c0-1.5-1.2-2.6-2.6-2.6s-2.6,1.2-2.6,2.6    c0,1.5,1.2,2.6,2.6,2.6S47.6,65.4,47.6,64z"/><path fill="#000000" stroke="#1D1D1B" stroke-miterlimit="10" d="M68.7,64c0-1.5-1.2-2.6-2.6-2.6c-1.5,0-2.6,1.2-2.6,2.6    c0,1.5,1.2,2.6,2.6,2.6C67.6,66.6,68.7,65.4,68.7,64z"/><path fill="#000000" stroke="#1D1D1B" stroke-miterlimit="10" d="M58.2,64c0-1.5-1.2-2.6-2.6-2.6c-1.5,0-2.6,1.2-2.6,2.6    c0,1.5,1.2,2.6,2.6,2.6C57,66.6,58.2,65.4,58.2,64z"/><path fill="#000000" stroke="#1D1D1B" stroke-miterlimit="10" d="M79.3,64c0-1.5-1.2-2.6-2.6-2.6S74,62.5,74,64    c0,1.5,1.2,2.6,2.6,2.6S79.3,65.4,79.3,64z"/><path fill="#000000" stroke="#1D1D1B" stroke-miterlimit="10" d="M37.1,64c0-1.5-1.2-2.6-2.6-2.6c-1.5,0-2.6,1.2-2.6,2.6    c0,1.5,1.2,2.6,2.6,2.6C35.9,66.6,37.1,65.4,37.1,64z"/><path fill="#000000" stroke="#1D1D1B" stroke-miterlimit="10" d="M26.5,64c0-1.5-1.2-2.6-2.6-2.6c-1.5,0-2.6,1.2-2.6,2.6    c0,1.5,1.2,2.6,2.6,2.6C25.4,66.6,26.5,65.4,26.5,64z"/><path fill="#000000" stroke="#1D1D1B" stroke-miterlimit="10" d="M16,64c0-1.5-1.2-2.6-2.6-2.6s-2.6,1.2-2.6,2.6    c0,1.5,1.2,2.6,2.6,2.6S16,65.4,16,64z"/><path fill="#000000" stroke="#1D1D1B" stroke-miterlimit="10" d="M5.4,64c0-0.7-0.3-1.4-0.8-1.9c-0.5-0.5-1.2-0.8-1.9-0.8    s-1.4,0.3-1.9,0.8c-0.5,0.5-0.8,1.2-0.8,1.9c0,0.7,0.3,1.4,0.8,1.9s1.2,0.8,1.9,0.8s1.4-0.3,1.9-0.8C5.2,65.4,5.4,64.7,5.4,64z"/></g></g></svg>