<svg xmlns="http://www.w3.org/2000/svg" xmlns:xlink="http://www.w3.org/1999/xlink" version="1.1" x="0px" y="0px" viewBox="0 0 90 112.5" enable-background="new 0 0 90 90" xml:space="preserve"><g><g><g><path fill="#000000" stroke="#1D1D1B" stroke-miterlimit="10" d="M41.7,32.1L15.6,58.3c-1,1-1.6,2.4-1.6,3.5s0.6,2.4,1.6,3.3     c2,2,4.7,2,6.7,0L45,42.3l22.8,22.8c2,2,4.7,2,6.7,0c2-2,2-4.9,0-6.9L48.4,32.1c-1-1-2.2-1.4-3.3-1.4     C43.7,30.7,42.7,31.1,41.7,32.1z"/></g></g><g><path fill="#000000" stroke="#1D1D1B" stroke-miterlimit="10" d="M5.4,26c0-0.7-0.3-1.4-0.8-1.9s-1.2-0.8-1.9-0.8s-1.4,0.3-1.9,0.8    S0.1,25.3,0.1,26s0.3,1.4,0.8,1.9s1.2,0.8,1.9,0.8s1.4-0.3,1.9-0.8C5.2,27.4,5.4,26.7,5.4,26z"/><path fill="#000000" stroke="#1D1D1B" stroke-miterlimit="10" d="M42.4,26c0,1.5,1.2,2.6,2.6,2.6s2.6-1.2,2.6-2.6s-1.2-2.6-2.6-2.6    S42.4,24.6,42.4,26z"/><path fill="#000000" stroke="#1D1D1B" stroke-miterlimit="10" d="M21.3,26c0,1.5,1.2,2.6,2.6,2.6s2.6-1.2,2.6-2.6s-1.2-2.6-2.6-2.6    C22.4,23.4,21.3,24.6,21.3,26z"/><path fill="#000000" stroke="#1D1D1B" stroke-miterlimit="10" d="M31.8,26c0,1.5,1.2,2.6,2.6,2.6c1.5,0,2.6-1.2,2.6-2.6    s-1.2-2.6-2.6-2.6C33,23.4,31.8,24.6,31.8,26z"/><path fill="#000000" stroke="#1D1D1B" stroke-miterlimit="10" d="M10.7,26c0,1.5,1.2,2.6,2.6,2.6S16,27.5,16,26s-1.2-2.6-2.6-2.6    S10.7,24.6,10.7,26z"/><path fill="#000000" stroke="#1D1D1B" stroke-miterlimit="10" d="M52.9,26c0,1.5,1.2,2.6,2.6,2.6c1.5,0,2.6-1.2,2.6-2.6    s-1.2-2.6-2.6-2.6C54.1,23.4,52.9,24.6,52.9,26z"/><path fill="#000000" stroke="#1D1D1B" stroke-miterlimit="10" d="M63.5,26c0,1.5,1.2,2.6,2.6,2.6c1.5,0,2.6-1.2,2.6-2.6    s-1.2-2.6-2.6-2.6C64.6,23.4,63.5,24.6,63.5,26z"/><path fill="#000000" stroke="#1D1D1B" stroke-miterlimit="10" d="M74,26c0,1.5,1.2,2.6,2.6,2.6c1.5,0,2.6-1.2,2.6-2.6    s-1.2-2.6-2.6-2.6C75.2,23.4,74,24.6,74,26z"/><path fill="#000000" stroke="#1D1D1B" stroke-miterlimit="10" d="M84.6,26c0,0.7,0.3,1.4,0.8,1.9c0.5,0.5,1.2,0.8,1.9,0.8    c0.7,0,1.4-0.3,1.9-0.8s0.8-1.2,0.8-1.9s-0.3-1.4-0.8-1.9s-1.2-0.8-1.9-0.8c-0.7,0-1.4,0.3-1.9,0.8C84.8,24.6,84.6,25.3,84.6,26z"/></g></g></svg>