<svg xmlns="http://www.w3.org/2000/svg" xmlns:xlink="http://www.w3.org/1999/xlink" version="1.1" x="0px" y="0px" viewBox="0 0 90 112.5" enable-background="new 0 0 90 90" xml:space="preserve"><g><g><g><path fill="#000000" stroke="#1D1D1B" stroke-miterlimit="10" d="M32.1,48.3l26.1,26.1c1,1,2.4,1.6,3.5,1.6s2.4-0.6,3.3-1.6     c2-2,2-4.7,0-6.7L42.3,45l22.8-22.8c2-2,2-4.7,0-6.7c-2-2-4.9-2-6.9,0L32.1,41.6c-1,1-1.4,2.2-1.4,3.3     C30.7,46.3,31.1,47.3,32.1,48.3z"/></g></g><g><path fill="#000000" stroke="#1D1D1B" stroke-miterlimit="10" d="M26,84.6c-0.7,0-1.4,0.3-1.9,0.8c-0.5,0.5-0.8,1.2-0.8,1.9    s0.3,1.4,0.8,1.9c0.5,0.5,1.2,0.8,1.9,0.8s1.4-0.3,1.9-0.8c0.5-0.5,0.8-1.2,0.8-1.9s-0.3-1.4-0.8-1.9C27.4,84.8,26.7,84.6,26,84.6    z"/><path fill="#000000" stroke="#1D1D1B" stroke-miterlimit="10" d="M26,47.6c1.5,0,2.6-1.2,2.6-2.6s-1.2-2.6-2.6-2.6s-2.6,1.2-2.6,2.6    S24.6,47.6,26,47.6z"/><path fill="#000000" stroke="#1D1D1B" stroke-miterlimit="10" d="M26,68.7c1.5,0,2.6-1.2,2.6-2.6c0-1.5-1.2-2.6-2.6-2.6    s-2.6,1.2-2.6,2.6C23.4,67.6,24.6,68.7,26,68.7z"/><path fill="#000000" stroke="#1D1D1B" stroke-miterlimit="10" d="M26,58.2c1.5,0,2.6-1.2,2.6-2.6c0-1.5-1.2-2.6-2.6-2.6    s-2.6,1.2-2.6,2.6C23.4,57,24.6,58.2,26,58.2z"/><path fill="#000000" stroke="#1D1D1B" stroke-miterlimit="10" d="M26,79.3c1.5,0,2.6-1.2,2.6-2.6S27.5,74,26,74s-2.6,1.2-2.6,2.6    S24.6,79.3,26,79.3z"/><path fill="#000000" stroke="#1D1D1B" stroke-miterlimit="10" d="M26,37.1c1.5,0,2.6-1.2,2.6-2.6c0-1.5-1.2-2.6-2.6-2.6    s-2.6,1.2-2.6,2.6C23.4,35.9,24.6,37.1,26,37.1z"/><path fill="#000000" stroke="#1D1D1B" stroke-miterlimit="10" d="M26,26.5c1.5,0,2.6-1.2,2.6-2.6c0-1.5-1.2-2.6-2.6-2.6    s-2.6,1.2-2.6,2.6C23.4,25.4,24.6,26.5,26,26.5z"/><path fill="#000000" stroke="#1D1D1B" stroke-miterlimit="10" d="M26,16c1.5,0,2.6-1.2,2.6-2.6s-1.2-2.6-2.6-2.6s-2.6,1.2-2.6,2.6    S24.6,16,26,16z"/><path fill="#000000" stroke="#1D1D1B" stroke-miterlimit="10" d="M26,5.4c0.7,0,1.4-0.3,1.9-0.8s0.8-1.2,0.8-1.9s-0.3-1.4-0.8-1.9    S26.7,0.1,26,0.1s-1.4,0.3-1.9,0.8s-0.8,1.2-0.8,1.9s0.3,1.4,0.8,1.9C24.6,5.2,25.3,5.4,26,5.4z"/></g></g></svg>