<svg xmlns="http://www.w3.org/2000/svg" xmlns:xlink="http://www.w3.org/1999/xlink" version="1.1" x="0px" y="0px" viewBox="0 0 90 112.5" enable-background="new 0 0 90 90" xml:space="preserve"><g><g><g><path fill="#000000" stroke="#1D1D1B" stroke-miterlimit="10" d="M57.9,41.7L31.7,15.6c-1-1-2.4-1.6-3.5-1.6c-1.2,0-2.4,0.6-3.3,1.6     c-2,2-2,4.7,0,6.7L47.7,45L24.9,67.8c-2,2-2,4.7,0,6.7c2,2,4.9,2,6.9,0l26.1-26.1c1-1,1.4-2.2,1.4-3.3     C59.3,43.7,58.9,42.7,57.9,41.7z"/></g></g><g><path fill="#000000" stroke="#1D1D1B" stroke-miterlimit="10" d="M64,5.4c0.7,0,1.4-0.3,1.9-0.8s0.8-1.2,0.8-1.9s-0.3-1.4-0.8-1.9    S64.7,0.1,64,0.1c-0.7,0-1.4,0.3-1.9,0.8c-0.5,0.5-0.8,1.2-0.8,1.9s0.3,1.4,0.8,1.9C62.6,5.2,63.3,5.4,64,5.4z"/><path fill="#000000" stroke="#1D1D1B" stroke-miterlimit="10" d="M64,42.4c-1.5,0-2.6,1.2-2.6,2.6s1.2,2.6,2.6,2.6    c1.5,0,2.6-1.2,2.6-2.6S65.4,42.4,64,42.4z"/><path fill="#000000" stroke="#1D1D1B" stroke-miterlimit="10" d="M64,21.3c-1.5,0-2.6,1.2-2.6,2.6s1.2,2.6,2.6,2.6    c1.5,0,2.6-1.2,2.6-2.6C66.6,22.4,65.4,21.3,64,21.3z"/><path fill="#000000" stroke="#1D1D1B" stroke-miterlimit="10" d="M64,31.8c-1.5,0-2.6,1.2-2.6,2.6c0,1.5,1.2,2.6,2.6,2.6    c1.5,0,2.6-1.2,2.6-2.6C66.6,33,65.4,31.8,64,31.8z"/><path fill="#000000" stroke="#1D1D1B" stroke-miterlimit="10" d="M64,10.7c-1.5,0-2.6,1.2-2.6,2.6S62.5,16,64,16    c1.5,0,2.6-1.2,2.6-2.6S65.4,10.7,64,10.7z"/><path fill="#000000" stroke="#1D1D1B" stroke-miterlimit="10" d="M64,52.9c-1.5,0-2.6,1.2-2.6,2.6c0,1.5,1.2,2.6,2.6,2.6    c1.5,0,2.6-1.2,2.6-2.6C66.6,54.1,65.4,52.9,64,52.9z"/><path fill="#000000" stroke="#1D1D1B" stroke-miterlimit="10" d="M64,63.5c-1.5,0-2.6,1.2-2.6,2.6c0,1.5,1.2,2.6,2.6,2.6    c1.5,0,2.6-1.2,2.6-2.6C66.6,64.6,65.4,63.5,64,63.5z"/><path fill="#000000" stroke="#1D1D1B" stroke-miterlimit="10" d="M64,74c-1.5,0-2.6,1.2-2.6,2.6c0,1.5,1.2,2.6,2.6,2.6    c1.5,0,2.6-1.2,2.6-2.6C66.6,75.2,65.4,74,64,74z"/><path fill="#000000" stroke="#1D1D1B" stroke-miterlimit="10" d="M64,84.6c-0.7,0-1.4,0.3-1.9,0.8c-0.5,0.5-0.8,1.2-0.8,1.9    c0,0.7,0.3,1.4,0.8,1.9c0.5,0.5,1.2,0.8,1.9,0.8c0.7,0,1.4-0.3,1.9-0.8s0.8-1.2,0.8-1.9c0-0.7-0.3-1.4-0.8-1.9    C65.4,84.8,64.7,84.6,64,84.6z"/></g></g></svg>